<?xml version="1.0" encoding="UTF-8" standalone="no"?>
<!-- Created with Inkscape (http://www.inkscape.org/) -->

<svg
   xmlns:dc="http://purl.org/dc/elements/1.1/"
   xmlns:cc="http://creativecommons.org/ns#"
   xmlns:rdf="http://www.w3.org/1999/02/22-rdf-syntax-ns#"
   xmlns:svg="http://www.w3.org/2000/svg"
   xmlns="http://www.w3.org/2000/svg"
   xmlns:sodipodi="http://sodipodi.sourceforge.net/DTD/sodipodi-0.dtd"
   xmlns:inkscape="http://www.inkscape.org/namespaces/inkscape"
   id="svg3041"
   version="1.1"
   inkscape:version="0.92.4 (5da689c313, 2019-01-14)"
   width="44"
   height="44"
   sodipodi:docname="app.svg">
  <metadata
     id="metadata3047">
    <rdf:RDF>
      <cc:Work
         rdf:about="">
        <dc:format>image/svg+xml</dc:format>
        <dc:type
           rdf:resource="http://purl.org/dc/dcmitype/StillImage" />
        <dc:title></dc:title>
      </cc:Work>
    </rdf:RDF>
  </metadata>
  <defs
     id="defs3045" />
  <sodipodi:namedview
     pagecolor="#ffffff"
     bordercolor="#666666"
     borderopacity="1"
     objecttolerance="10"
     gridtolerance="10"
     guidetolerance="10"
     inkscape:pageopacity="0"
     inkscape:pageshadow="2"
     inkscape:window-width="3794"
     inkscape:window-height="2123"
     id="namedview3043"
     showgrid="false"
     inkscape:zoom="16"
     inkscape:cx="6.89603"
     inkscape:cy="25.323002"
     inkscape:window-x="46"
     inkscape:window-y="0"
     inkscape:window-maximized="1"
     inkscape:current-layer="svg3041"
     borderlayer="true"
     showguides="true"
     inkscape:guide-bbox="true" />
  <path
     style="color:#000000;font-style:normal;font-variant:normal;font-weight:normal;font-stretch:normal;font-size:medium;line-height:normal;font-family:sans-serif;font-variant-ligatures:normal;font-variant-position:normal;font-variant-caps:normal;font-variant-numeric:normal;font-variant-alternates:normal;font-feature-settings:normal;text-indent:0;text-align:start;text-decoration:none;text-decoration-line:none;text-decoration-style:solid;text-decoration-color:#000000;letter-spacing:normal;word-spacing:normal;text-transform:none;writing-mode:lr-tb;direction:ltr;text-orientation:mixed;dominant-baseline:auto;baseline-shift:baseline;text-anchor:start;white-space:normal;shape-padding:0;clip-rule:nonzero;display:inline;overflow:visible;visibility:visible;opacity:1;isolation:auto;mix-blend-mode:normal;color-interpolation:sRGB;color-interpolation-filters:linearRGB;solid-color:#000000;solid-opacity:1;vector-effect:none;fill:#ffffff;fill-opacity:1;fill-rule:nonzero;stroke:none;stroke-width:1.35826969;stroke-linecap:butt;stroke-linejoin:miter;stroke-miterlimit:4;stroke-dasharray:none;stroke-dashoffset:0;stroke-opacity:1;color-rendering:auto;image-rendering:auto;shape-rendering:auto;text-rendering:auto;enable-background:accumulate"
     d="M 22.003906 0.044921875 C 12.274475 0.044921875 4.3124117 7.963552 4.2441406 17.673828 L 4.2324219 17.673828 L 4.2324219 20.404297 L 4.2324219 43.955078 L 39.765625 43.955078 L 39.765625 20.404297 L 39.767578 17.798828 C 39.770643 8.0312498 31.77531 0.044921875 22.003906 0.044921875 z M 22.003906 6.6933594 C 28.149659 6.6933594 33.055109 11.577247 33.109375 17.699219 L 33.109375 20.404297 L 10.888672 20.404297 L 10.888672 17.798828 C 10.888672 11.628952 15.823926 6.6933594 22.003906 6.6933594 z M 19.203125 26.955078 L 20.388672 26.955078 L 20.816406 27.101562 L 21.509766 27.501953 L 21.708984 27.902344 L 22.015625 28.328125 L 22.082031 28.755859 L 22.175781 28.941406 L 22.175781 29.369141 L 22.082031 29.621094 L 21.65625 29.927734 L 21.523438 29.927734 L 21.308594 30.101562 L 20.949219 30.035156 L 20.761719 29.927734 L 20.669922 29.927734 L 20.402344 29.128906 L 20.242188 28.888672 L 19.910156 28.568359 L 19.681641 28.568359 L 19.082031 28.675781 L 18.869141 28.888672 L 18.869141 28.994141 L 18.736328 29.195312 L 18.736328 29.515625 L 18.775391 29.701172 L 18.775391 29.835938 L 19.015625 30.314453 L 21.283203 31.78125 L 21.708984 32.208984 L 22.136719 33.048828 L 22.228516 33.621094 L 22.283203 33.767578 L 22.283203 33.955078 L 22.363281 34.300781 L 22.228516 34.808594 L 22.082031 35.181641 L 21.976562 35.662109 L 21.615234 36.314453 L 21.123047 36.875 L 20.589844 37.142578 L 19.962891 37.220703 L 19.042969 37.261719 L 17.990234 36.941406 L 17.695312 36.742188 L 17.242188 36.248047 L 17.029297 35.369141 L 17.029297 34.421875 L 17.148438 34.048828 L 17.308594 33.808594 L 17.455078 33.767578 L 17.615234 33.595703 L 17.695312 33.675781 L 18.015625 33.675781 L 18.189453 33.582031 L 18.349609 33.675781 L 18.681641 33.994141 L 18.921875 34.755859 L 18.962891 34.808594 L 19.109375 35.275391 L 19.162109 35.369141 L 19.162109 35.421875 L 19.269531 35.595703 L 19.388672 35.662109 L 19.935547 35.662109 L 20.455078 35.460938 L 20.695312 34.595703 L 20.615234 34.048828 L 20.429688 33.341797 L 20.095703 32.607422 L 19.388672 32.115234 L 18.681641 31.728516 L 17.603516 30.927734 L 17.189453 30.515625 L 16.976562 29.835938 L 16.976562 29.300781 L 17.269531 28.568359 L 17.363281 28.181641 L 17.548828 27.847656 L 18.042969 27.369141 L 19.203125 26.955078 z M 31.181641 26.955078 L 32.369141 26.955078 L 32.794922 27.101562 L 33.488281 27.501953 L 33.6875 27.902344 L 33.994141 28.328125 L 34.0625 28.755859 L 34.154297 28.941406 L 34.154297 29.369141 L 34.0625 29.621094 L 33.634766 29.927734 L 33.501953 29.927734 L 33.289062 30.101562 L 32.927734 30.035156 L 32.742188 29.927734 L 32.648438 29.927734 L 32.380859 29.128906 L 32.222656 28.888672 L 31.888672 28.568359 L 31.662109 28.568359 L 31.0625 28.675781 L 30.847656 28.888672 L 30.847656 28.994141 L 30.714844 29.195312 L 30.714844 29.515625 L 30.755859 29.701172 L 30.755859 29.835938 L 30.994141 30.314453 L 33.261719 31.78125 L 33.6875 32.208984 L 34.115234 33.048828 L 34.208984 33.621094 L 34.261719 33.767578 L 34.261719 33.955078 L 34.341797 34.300781 L 34.208984 34.808594 L 34.0625 35.181641 L 33.955078 35.662109 L 33.595703 36.314453 L 33.101562 36.875 L 32.568359 37.142578 L 31.941406 37.220703 L 31.021484 37.261719 L 29.96875 36.941406 L 29.675781 36.742188 L 29.222656 36.248047 L 29.007812 35.369141 L 29.007812 34.421875 L 29.128906 34.048828 L 29.289062 33.808594 L 29.435547 33.767578 L 29.595703 33.595703 L 29.675781 33.675781 L 29.994141 33.675781 L 30.167969 33.582031 L 30.328125 33.675781 L 30.662109 33.994141 L 30.902344 34.755859 L 30.941406 34.808594 L 31.087891 35.275391 L 31.142578 35.369141 L 31.142578 35.421875 L 31.248047 35.595703 L 31.369141 35.662109 L 31.916016 35.662109 L 32.435547 35.460938 L 32.675781 34.595703 L 32.595703 34.048828 L 32.408203 33.341797 L 32.074219 32.607422 L 31.369141 32.115234 L 30.662109 31.728516 L 29.582031 30.927734 L 29.167969 30.515625 L 28.955078 29.835938 L 28.955078 29.300781 L 29.248047 28.568359 L 29.341797 28.181641 L 29.529297 27.847656 L 30.021484 27.369141 L 31.181641 26.955078 z M 11.404297 27.142578 L 11.724609 27.300781 L 11.791016 27.435547 L 11.791016 28.154297 L 11.699219 29.021484 L 11.699219 29.261719 L 11.605469 29.554688 L 11.605469 29.742188 L 11.699219 29.701172 L 11.658203 29.888672 L 11.605469 29.941406 L 11.605469 30.234375 L 11.550781 30.328125 L 11.511719 30.474609 L 11.404297 30.568359 L 11.365234 30.421875 L 11.365234 30.714844 L 11.630859 30.714844 L 11.550781 30.861328 L 11.550781 31.048828 L 12.177734 31.101562 L 12.285156 31.048828 L 12.378906 31.048828 L 12.378906 31.101562 L 12.525391 31.021484 L 12.658203 31.101562 L 12.857422 31.101562 L 12.912109 31.048828 L 13.285156 30.994141 L 13.285156 31.048828 L 13.177734 31.101562 L 13.244141 31.248047 L 13.484375 31.101562 L 13.539062 30.994141 L 13.671875 30.994141 L 13.818359 30.927734 L 13.871094 31.101562 L 14.017578 31.142578 L 14.111328 31.195312 L 14.164062 31.101562 L 14.164062 31.048828 L 14.257812 30.861328 L 14.191406 30.675781 L 14.298828 30.087891 L 14.298828 29.994141 L 14.351562 29.888672 L 14.445312 28.634766 L 14.445312 28.208984 L 14.498047 27.675781 L 14.619141 27.435547 L 14.884766 27.380859 L 14.925781 27.435547 L 15.03125 27.234375 L 15.097656 27.394531 L 15.458984 27.380859 L 15.550781 27.529297 L 15.550781 27.380859 L 15.658203 27.289062 L 15.697266 27.435547 L 15.845703 27.341797 L 15.992188 27.474609 L 15.992188 27.621094 L 16.044922 27.675781 L 16.044922 28.101562 L 16.138672 28.208984 L 16.138672 28.541016 L 16.177734 28.595703 L 16.044922 28.634766 L 16.138672 28.6875 L 16.083984 28.927734 L 16.005859 28.927734 L 15.9375 29.167969 L 15.832031 29.394531 L 15.9375 29.501953 L 15.9375 29.261719 L 16.044922 29.261719 L 15.9375 29.794922 L 16.044922 30.128906 L 16.083984 29.994141 L 16.083984 30.275391 L 15.992188 30.369141 L 15.992188 30.474609 L 16.044922 30.474609 L 16.044922 30.568359 L 15.9375 30.662109 L 15.9375 30.902344 L 15.898438 30.994141 L 15.898438 31.742188 L 15.605469 31.927734 L 15.605469 32.115234 L 15.697266 32.154297 L 15.511719 32.300781 L 15.511719 32.208984 L 15.417969 32.208984 L 15.417969 32.449219 L 15.365234 32.449219 L 15.365234 32.634766 L 15.445312 32.634766 L 15.511719 32.394531 L 15.605469 32.355469 L 15.605469 32.449219 L 15.550781 32.541016 L 15.658203 32.501953 L 15.697266 32.261719 L 15.751953 32.208984 L 15.832031 32.380859 L 15.751953 32.541016 L 15.751953 32.634766 L 15.845703 32.595703 L 15.751953 32.835938 L 15.697266 32.888672 L 15.697266 33.220703 L 15.605469 33.220703 L 15.605469 33.074219 L 15.550781 33.074219 L 15.445312 33.181641 L 15.511719 33.369141 L 15.605469 33.408203 L 15.697266 33.515625 L 15.550781 33.515625 L 15.511719 33.460938 L 15.417969 33.648438 L 15.417969 34.474609 L 15.271484 34.474609 L 15.191406 34.394531 L 15.125 34.474609 L 15.177734 34.474609 L 15.177734 34.529297 L 15.03125 34.595703 L 15.125 34.902344 L 15.3125 34.529297 L 15.3125 34.955078 L 15.271484 35.007812 L 15.271484 35.154297 L 15.365234 35.248047 L 15.417969 35.195312 L 15.458984 35.101562 L 15.511719 35.154297 L 15.365234 35.289062 L 15.21875 35.369141 L 15.21875 35.435547 L 15.417969 35.435547 L 15.177734 35.554688 L 15.177734 35.822266 L 15.271484 35.78125 L 15.21875 35.875 L 15.21875 35.96875 L 15.152344 36.154297 L 15.271484 36.154297 L 15.271484 36.0625 L 15.3125 35.96875 L 15.365234 36.0625 L 15.550781 35.96875 L 15.458984 36.115234 L 15.3125 36.115234 L 15.3125 36.355469 L 15.378906 36.421875 L 15.271484 36.648438 L 15.271484 36.982422 L 15.458984 36.982422 L 15.417969 37.035156 L 15.417969 37.128906 L 15.458984 37.167969 L 15.271484 37.275391 L 15.3125 37.167969 L 14.978516 37.460938 L 14.791016 37.554688 L 14.738281 37.515625 L 14.591797 37.607422 L 14.685547 37.314453 L 14.685547 37.220703 L 14.644531 37.314453 L 14.591797 37.369141 L 14.498047 37.554688 L 14.498047 37.421875 L 14.445312 37.369141 L 14.257812 37.554688 L 14.324219 37.380859 L 14.164062 37.460938 L 14.164062 37.369141 L 14.058594 37.421875 L 14.017578 37.662109 L 13.964844 37.421875 L 13.964844 37.220703 L 13.912109 37.275391 L 13.871094 37.515625 L 13.818359 37.128906 L 13.738281 37.449219 L 13.630859 37.554688 L 13.578125 37.421875 L 13.578125 37.275391 L 13.431641 36.6875 L 13.484375 36.501953 L 13.484375 36.408203 L 13.539062 36.300781 L 13.539062 36.115234 L 13.578125 35.875 L 13.578125 35.634766 L 13.658203 35.634766 L 13.564453 35.449219 L 13.630859 35.394531 L 13.630859 35.289062 L 13.578125 35.289062 L 13.578125 35.154297 L 13.630859 35.048828 L 13.630859 34.861328 L 13.671875 34.568359 L 13.724609 34.380859 L 13.644531 34.220703 L 13.777344 34.087891 L 13.777344 33.701172 L 13.818359 33.369141 L 13.871094 33.167969 L 13.871094 33.021484 L 13.912109 32.835938 L 13.912109 32.501953 L 13.777344 32.449219 L 13.630859 32.501953 L 13.191406 32.541016 L 12.804688 32.634766 L 11.605469 32.701172 L 11.605469 33.074219 L 11.658203 33.074219 L 11.658203 33.167969 L 11.605469 33.167969 L 11.605469 33.554688 L 11.658203 33.794922 L 11.470703 33.794922 L 11.404297 33.460938 L 11.351562 33.96875 L 11.404297 34.474609 L 11.365234 34.621094 L 11.365234 34.767578 L 11.404297 34.621094 L 11.404297 34.808594 L 11.458984 34.861328 L 11.458984 33.994141 L 11.550781 33.994141 L 11.550781 33.888672 L 11.605469 33.888672 L 11.605469 33.994141 L 11.550781 34.087891 L 11.550781 34.861328 L 11.458984 34.955078 L 11.458984 35.007812 L 11.365234 35.101562 L 11.271484 35.101562 L 11.271484 35.394531 L 11.458984 35.394531 L 11.404297 35.488281 L 11.404297 35.78125 L 11.550781 35.78125 L 11.658203 35.675781 L 11.605469 35.875 L 11.550781 35.96875 L 11.550781 36.154297 L 11.404297 36.300781 L 11.404297 36.501953 L 11.365234 36.595703 L 11.365234 36.6875 L 11.431641 36.6875 L 11.511719 36.541016 L 11.658203 36.408203 L 11.550781 36.541016 L 11.511719 36.648438 L 11.365234 36.835938 L 11.365234 37.035156 L 11.21875 37.167969 L 11.3125 37.220703 L 11.390625 37.154297 L 11.511719 37.314453 L 11.578125 37.248047 L 11.511719 37.128906 L 11.511719 37.035156 L 11.605469 37.035156 L 11.605469 37.369141 L 11.658203 37.460938 L 11.751953 37.275391 L 11.791016 37.460938 L 11.751953 37.515625 L 11.751953 37.662109 L 11.658203 37.662109 L 11.484375 37.994141 L 11.404297 37.994141 L 11.404297 37.755859 L 11.365234 37.794922 L 11.3125 37.994141 L 11.21875 38.087891 L 11.164062 38.048828 L 11.125 37.755859 L 11.017578 38.048828 L 10.898438 37.914062 L 10.777344 38.048828 L 10.738281 38.142578 L 10.685547 38.048828 L 10.605469 38.208984 L 10.498047 38.087891 L 10.390625 38.142578 L 10.324219 37.994141 L 10.257812 37.994141 L 10.205078 38.142578 L 10.058594 37.902344 L 9.8183594 37.369141 L 9.765625 37.074219 L 9.7246094 36.982422 L 9.7246094 32.261719 L 9.6582031 31.394531 L 9.7246094 29.994141 L 9.7109375 29.460938 L 10.164062 27.460938 L 10.351562 27.289062 L 10.498047 27.289062 L 10.644531 27.234375 L 10.925781 27.234375 L 11.017578 27.289062 L 11.285156 27.154297 L 11.365234 27.234375 L 11.404297 27.142578 z M 22.833984 27.328125 L 23.287109 27.380859 L 24.820312 27.380859 L 25.220703 27.328125 L 25.380859 27.435547 L 27.380859 27.435547 L 27.861328 27.488281 L 28.248047 27.488281 L 28.314453 27.554688 L 28.5 27.554688 L 28.6875 27.648438 L 28.847656 27.648438 L 28.634766 28.380859 L 28.673828 28.488281 L 28.566406 28.488281 L 28.419922 28.861328 L 28.046875 29.300781 L 27.021484 29.222656 L 26.646484 29.289062 L 26.580078 30.914062 L 26.527344 31.021484 L 26.621094 31.115234 L 26.566406 31.808594 L 26.59375 32.222656 L 26.566406 32.488281 L 26.580078 32.755859 L 26.541016 33.007812 L 26.554688 33.488281 L 26.621094 33.595703 L 26.541016 33.808594 L 26.621094 33.902344 L 26.5 34.529297 L 26.580078 34.595703 L 26.527344 34.701172 L 26.486328 34.914062 L 26.580078 35.087891 L 26.474609 35.435547 L 26.513672 35.488281 L 26.486328 35.648438 L 26.527344 35.701172 L 26.433594 35.794922 L 26.460938 36.128906 L 26.419922 36.167969 L 26.419922 36.328125 L 26.527344 36.435547 L 26.353516 36.914062 L 26.460938 37.021484 L 26.474609 37.220703 L 26.367188 37.380859 L 26.486328 37.435547 L 26.328125 37.488281 L 26.248047 37.701172 L 25.994141 37.994141 L 25.646484 38.115234 L 25.126953 38.115234 L 25.074219 38.074219 L 24.941406 38.021484 L 24.847656 38.074219 L 24.554688 36.982422 L 24.673828 32.328125 L 24.646484 31.914062 L 24.6875 30.861328 L 24.646484 30.115234 L 24.753906 29.328125 L 24.740234 29.0625 L 24.220703 29.0625 L 23.886719 29.128906 L 22.927734 29.021484 L 22.701172 28.955078 L 22.580078 28.955078 L 22.339844 28.541016 L 22.433594 28.488281 L 22.646484 27.902344 L 22.566406 27.755859 L 22.673828 27.701172 L 22.833984 27.328125 z M 15.550781 28.355469 L 15.511719 28.394531 L 15.511719 28.595703 L 15.550781 28.541016 L 15.550781 28.355469 z M 15.550781 28.634766 L 15.550781 28.742188 L 15.605469 28.634766 L 15.550781 28.634766 z M 15.550781 28.982422 L 15.550781 29.167969 L 15.697266 29.220703 L 15.697266 29.167969 L 15.550781 28.982422 z M 15.550781 29.261719 L 15.511719 29.408203 L 15.458984 29.501953 L 15.511719 29.554688 L 15.511719 29.847656 L 15.605469 29.941406 L 15.605469 30.369141 L 15.511719 30.861328 L 15.550781 30.902344 L 15.511719 31.048828 L 15.458984 31.101562 L 15.458984 30.902344 L 15.271484 30.902344 L 15.271484 30.994141 L 15.365234 30.994141 L 15.365234 31.380859 L 15.458984 31.195312 L 15.550781 31.195312 L 15.658203 31.048828 L 15.658203 30.755859 L 15.605469 30.714844 L 15.697266 30.128906 L 15.751953 30.087891 L 15.697266 30.035156 L 15.697266 29.794922 L 15.550781 29.794922 L 15.550781 29.261719 z M 15.845703 29.554688 L 15.804688 29.607422 L 15.845703 29.701172 L 15.845703 29.554688 z M 15.845703 29.701172 L 15.751953 29.794922 L 15.845703 29.794922 L 15.898438 29.648438 L 15.845703 29.701172 z M 15.21875 29.742188 L 15.271484 29.847656 L 15.271484 29.742188 L 15.21875 29.742188 z M 11.404297 30.035156 L 11.365234 30.087891 L 11.365234 30.181641 L 11.404297 30.035156 z M 15.845703 30.568359 L 15.804688 30.662109 L 15.804688 30.755859 L 15.925781 30.634766 L 15.845703 30.568359 z M 15.804688 30.955078 L 15.751953 30.994141 L 15.751953 31.048828 L 15.697266 31.101562 L 15.751953 31.142578 L 15.751953 31.341797 L 15.697266 31.435547 L 15.697266 31.488281 L 15.658203 31.529297 L 15.605469 31.675781 L 15.550781 31.675781 L 15.511719 31.582031 L 15.417969 31.634766 L 15.417969 31.582031 L 15.550781 31.435547 L 15.619141 31.314453 L 15.191406 31.595703 L 15.3125 31.728516 L 15.365234 31.914062 L 15.3125 31.96875 L 15.21875 32.154297 L 15.21875 32.300781 L 15.3125 32.261719 L 15.3125 32.154297 L 15.431641 31.914062 L 15.511719 31.914062 L 15.804688 31.728516 L 15.804688 30.955078 z M 11.21875 30.994141 L 11.21875 31.101562 L 11.365234 31.048828 L 11.3125 30.994141 L 11.21875 30.994141 z M 13.390625 31.289062 L 13.285156 31.435547 L 13.431641 31.341797 L 13.390625 31.289062 z M 15.072266 31.289062 L 15.072266 31.488281 L 15.125 31.380859 L 15.21875 31.380859 L 15.271484 31.289062 L 15.072266 31.289062 z M 13.871094 31.341797 L 14.058594 31.435547 L 14.058594 31.341797 L 13.871094 31.341797 z M 12.765625 31.380859 L 12.765625 31.488281 L 12.912109 31.435547 L 12.951172 31.380859 L 12.765625 31.380859 z M 12.232422 31.435547 L 12.232422 31.488281 L 12.324219 31.488281 L 12.232422 31.435547 z M 12.564453 31.435547 L 12.564453 31.488281 L 12.619141 31.435547 L 12.564453 31.435547 z M 13.005859 31.822266 L 12.857422 31.875 L 13.005859 31.875 L 13.005859 31.822266 z M 15.072266 32.154297 L 15.072266 32.300781 L 15.125 32.208984 L 15.072266 32.154297 z M 15.21875 32.394531 L 15.177734 32.449219 L 15.072266 32.501953 L 15.125 32.541016 L 15.072266 32.634766 L 15.177734 32.742188 L 15.271484 32.742188 L 15.271484 32.394531 L 15.21875 32.394531 z M 16.044922 32.541016 L 15.992188 32.742188 L 15.992188 32.595703 L 16.044922 32.541016 z M 10.832031 32.6875 L 10.777344 32.78125 L 10.832031 32.835938 L 10.832031 32.6875 z M 11.271484 32.742188 L 11.404297 33.021484 L 11.3125 33.021484 L 11.271484 32.982422 L 11.3125 33.128906 L 11.3125 33.314453 L 11.404297 33.314453 L 11.458984 33.369141 L 11.525391 33.220703 L 11.404297 33.220703 L 11.404297 33.128906 L 11.511719 33.128906 L 11.511719 32.742188 L 11.271484 32.742188 z M 10.738281 32.927734 L 10.777344 32.982422 L 10.832031 32.927734 L 10.738281 32.927734 z M 15.072266 32.927734 L 15.072266 32.982422 L 15.125 33.021484 L 15.125 32.927734 L 15.072266 32.927734 z M 15.3125 32.982422 L 15.3125 33.074219 L 15.365234 33.128906 L 15.3125 32.982422 z M 15.072266 33.167969 L 15.03125 33.261719 L 14.978516 33.314453 L 14.884766 33.515625 L 14.951172 33.648438 L 15.072266 33.648438 L 15.072266 33.794922 L 15.271484 33.794922 L 15.337891 33.728516 L 15.177734 33.648438 L 15.177734 33.460938 L 15.365234 33.261719 L 15.017578 33.501953 L 15.072266 33.314453 L 15.072266 33.167969 z M 14.791016 33.314453 L 14.791016 33.408203 L 14.832031 33.369141 L 14.791016 33.314453 z M 15.21875 33.460938 L 15.21875 33.554688 L 15.271484 33.554688 L 15.21875 33.460938 z M 15.751953 33.554688 L 15.751953 33.648438 L 15.658203 33.607422 L 15.751953 33.554688 z M 15.605469 33.794922 L 15.685547 33.96875 L 15.751953 33.847656 L 15.818359 33.914062 L 15.550781 34.181641 L 15.511719 34.035156 L 15.550781 33.941406 L 15.511719 33.888672 L 15.605469 33.794922 z M 15.03125 33.888672 L 15.03125 34.181641 L 15.125 33.994141 L 15.125 34.234375 L 15.072266 34.234375 L 14.925781 34.380859 L 15.03125 34.421875 L 15.21875 34.275391 L 15.21875 34.328125 L 15.3125 34.234375 L 15.271484 34.181641 L 15.271484 33.941406 L 15.177734 33.941406 L 15.125 33.888672 L 15.03125 33.888672 z M 15.605469 34.234375 L 15.550781 34.421875 L 15.550781 34.275391 L 15.605469 34.234375 z M 11.072266 34.529297 L 11.072266 34.808594 L 11.125 34.861328 L 11.164062 34.808594 L 11.164062 34.529297 L 11.072266 34.529297 z M 14.738281 34.662109 L 14.738281 34.902344 L 14.832031 34.902344 L 14.832031 34.662109 L 14.738281 34.662109 z M 14.925781 34.662109 L 14.925781 34.767578 L 14.978516 34.662109 L 14.925781 34.662109 z M 15.511719 34.767578 L 15.578125 34.888672 L 15.458984 35.007812 L 15.458984 34.902344 L 15.511719 34.767578 z M 15.03125 34.861328 L 14.925781 35.048828 L 14.925781 35.341797 L 14.832031 35.488281 L 14.884766 35.582031 L 14.884766 35.728516 L 14.925781 35.634766 L 15.177734 35.341797 L 15.177734 35.195312 L 15.083984 35.115234 L 15.03125 35.289062 L 15.03125 34.861328 z M 11.697266 34.902344 L 11.697266 34.955078 L 11.751953 35.007812 L 11.658203 35.007812 L 11.658203 34.955078 L 11.697266 34.902344 z M 11.630859 35.074219 L 11.697266 35.195312 L 11.658203 35.248047 L 11.605469 35.154297 L 11.511719 35.195312 L 11.630859 35.074219 z M 14.751953 35.115234 L 14.671875 35.275391 L 14.738281 35.341797 L 14.832031 35.195312 L 14.751953 35.115234 z M 10.832031 35.248047 L 10.777344 35.289062 L 10.832031 35.394531 L 10.898438 35.314453 L 10.832031 35.248047 z M 15.845703 35.248047 L 15.845703 35.341797 L 15.751953 35.341797 L 15.751953 35.289062 L 15.845703 35.248047 z M 11.550781 35.341797 L 11.605469 35.394531 L 11.658203 35.394531 L 11.658203 35.529297 L 11.751953 35.529297 L 11.619141 35.634766 L 11.550781 35.529297 L 11.550781 35.341797 z M 14.777344 35.662109 L 14.630859 35.728516 L 14.685547 35.914062 L 14.619141 35.982422 L 14.884766 36.115234 L 14.884766 36.208984 L 14.978516 36.208984 L 14.978516 36.021484 L 15.072266 35.914062 L 15.072266 35.822266 L 14.978516 35.728516 L 14.978516 35.875 L 14.832031 35.941406 L 14.832031 35.78125 L 14.777344 35.662109 z M 11.125 35.675781 L 11.072266 35.728516 L 11.072266 35.822266 L 11.125 35.822266 L 11.125 35.675781 z M 11.404297 35.875 L 11.298828 35.982422 L 11.365234 36.115234 L 11.511719 35.875 L 11.404297 35.875 z M 14.351562 35.96875 L 14.298828 36.021484 L 14.351562 36.021484 L 14.351562 35.96875 z M 10.777344 36.0625 L 10.738281 36.154297 L 10.777344 36.115234 L 10.777344 36.0625 z M 11.3125 36.208984 L 11.3125 36.261719 L 11.404297 36.261719 L 11.3125 36.208984 z M 15.458984 36.208984 L 15.511719 36.261719 L 15.458984 36.261719 L 15.458984 36.208984 z M 15.21875 36.261719 L 15.097656 36.328125 L 15.191406 36.421875 L 15.072266 36.648438 L 15.072266 36.742188 L 14.925781 36.742188 L 14.925781 36.914062 L 15.072266 36.982422 L 15.072266 37.035156 L 15.177734 36.927734 L 15.21875 36.595703 L 15.21875 36.261719 z M 10.832031 36.300781 L 10.777344 36.355469 L 10.832031 36.408203 L 10.832031 36.300781 z M 14.511719 36.300781 L 14.404297 36.355469 L 14.445312 36.501953 L 14.511719 36.300781 z M 14.832031 36.300781 L 14.738281 36.408203 L 14.550781 36.408203 L 14.550781 36.501953 L 14.697266 36.501953 L 14.630859 36.982422 L 14.738281 36.888672 L 14.804688 36.955078 L 14.898438 36.701172 L 14.791016 36.648438 L 14.884766 36.595703 L 14.832031 36.541016 L 14.832031 36.408203 L 14.884766 36.501953 L 14.925781 36.408203 L 14.925781 36.300781 L 14.832031 36.300781 z M 15.550781 36.300781 L 15.751953 36.300781 L 15.751953 36.355469 L 15.697266 36.408203 L 15.550781 36.300781 z M 15.550781 36.595703 L 15.658203 36.6875 L 15.550781 36.6875 L 15.550781 36.595703 z M 11.550781 36.6875 L 11.484375 36.914062 L 11.404297 36.835938 L 11.550781 36.6875 z M 11.017578 36.742188 L 10.978516 36.78125 L 10.978516 36.888672 L 11.097656 36.888672 L 11.017578 37.035156 L 11.125 37.035156 L 11.125 36.78125 L 11.072266 36.78125 L 11.017578 36.742188 z M 15.458984 36.78125 L 15.365234 36.888672 L 15.365234 36.835938 L 15.458984 36.78125 z M 14.298828 37.220703 L 14.257812 37.275391 L 14.298828 37.314453 L 14.298828 37.220703 z M 10.884766 37.994141 L 10.884766 38.048828 L 10.832031 38.048828 L 10.884766 37.994141 z "
     id="rect3051" />
  <g
     aria-label="HSTS"
     style="font-style:normal;font-variant:normal;font-weight:normal;font-stretch:normal;font-size:13.33333302px;line-height:125%;font-family:Bocadillo;-inkscape-font-specification:Bocadillo;letter-spacing:0px;word-spacing:0px;fill:#000000;fill-opacity:1;stroke:none;stroke-width:1px;stroke-linecap:butt;stroke-linejoin:miter;stroke-opacity:1"
     id="text814" />
</svg>
